<svg width="31" height="34" viewBox="0 0 31 34" fill="none" xmlns="http://www.w3.org/2000/svg">
<g opacity="0.8">
<path fill-rule="evenodd" clip-rule="evenodd" d="M14.2506 25.0865C19.1109 25.0865 23.0509 20.7923 23.0509 15.4952C23.0509 10.198 19.1109 5.90381 14.2506 5.90381C9.39025 5.90381 5.4502 10.198 5.4502 15.4952C5.4502 20.7923 9.39025 25.0865 14.2506 25.0865ZM14.2498 9.19992C13.4723 9.19992 12.7043 9.36694 11.9903 9.68924C11.2766 10.0114 10.6329 10.4815 10.0939 11.069C9.55507 11.6563 9.13094 12.3498 8.84266 13.1083C8.5544 13.8668 8.40675 14.6776 8.40675 15.495C8.40675 15.9447 8.77132 16.3093 9.22104 16.3093C9.67076 16.3093 10.0353 15.9447 10.0353 15.495C10.0353 14.8729 10.1478 14.2583 10.365 13.6869C10.5822 13.1155 10.8989 12.6006 11.2939 12.17C11.6889 11.7396 12.1539 11.4022 12.6604 11.1736C13.1667 10.945 13.7066 10.8285 14.2498 10.8285C14.6995 10.8285 15.0641 10.4639 15.0641 10.0142C15.0641 9.56448 14.6995 9.19992 14.2498 9.19992Z" fill="white"/>
<path d="M25.5661 27.8268L23.0518 25.0864" stroke="white" stroke-width="1.62857" stroke-linecap="round"/>
</g>
</svg>
